<?xml version="1.0" standalone="no"?>
<!DOCTYPE svg PUBLIC "-//W3C//DTD SVG 20010904//EN"
 "http://www.w3.org/TR/2001/REC-SVG-20010904/DTD/svg10.dtd">
<svg version="1.0" xmlns="http://www.w3.org/2000/svg"
 width="600.000000pt" height="600.000000pt" viewBox="0 0 600.000000 600.000000"
 preserveAspectRatio="xMidYMid meet">
<g transform="translate(0.000000,600.000000) scale(0.100000,-0.100000)"
fill="#000000" stroke="none">
<path d="M3475 4153 c-63 -10 -227 -54 -302 -82 -95 -35 -354 -149 -367 -161
-5 -5 -50 12 -105 39 -125 63 -227 99 -313 111 -100 15 -132 3 -205 -73 -88
-92 -91 -116 -26 -215 32 -47 135 -142 155 -142 3 0 28 20 55 45 l48 45 -30
22 c-74 55 -155 160 -155 203 0 36 157 1 303 -68 l107 -50 -65 -39 c-82 -49
-182 -144 -191 -182 -10 -43 14 -56 102 -56 181 0 598 165 912 361 192 120
258 184 228 224 -14 19 -90 28 -151 18z m39 -35 c-6 -10 -4 -10 7 -2 13 10 75
11 85 2 2 -3 -5 -14 -16 -25 -10 -12 -16 -25 -12 -29 4 -5 3 -6 -2 -2 -5 4
-15 3 -23 -3 -10 -9 -18 -8 -31 5 -10 9 -22 13 -26 9 -4 -4 -10 -3 -14 2 -12
18 -52 36 -52 24 0 -5 -5 -7 -11 -3 -17 10 3 22 46 27 22 2 44 4 48 5 5 1 5
-4 1 -10z m-41 -67 c17 -17 -23 -70 -85 -114 -231 -164 -748 -331 -815 -264
-13 13 -13 18 1 45 8 16 34 43 57 60 l41 30 77 -49 78 -49 83 28 84 28 -92 64
-92 64 32 12 c18 6 83 32 143 56 118 48 238 83 332 98 63 9 142 5 156 -9z m50
-22 c-12 -4 -20 -1 -24 10 -10 26 1 34 23 15 18 -17 18 -19 1 -25z m-1090 2
c11 -1 15 -6 11 -13 -4 -7 -3 -8 5 -4 11 7 111 -28 172 -60 14 -7 30 -10 34
-6 5 4 5 1 1 -5 -4 -8 -2 -14 6 -15 26 -3 33 -5 63 -19 17 -7 34 -19 38 -26 5
-8 13 -11 18 -8 9 6 83 -45 107 -74 7 -9 15 -15 17 -13 15 8 24 0 13 -12 -9
-10 -15 -11 -20 -2 -5 7 -8 8 -8 0 0 -6 -10 -16 -23 -21 -24 -11 -78 4 -91 26
-4 6 -16 11 -26 11 -10 0 -22 4 -25 10 -3 6 1 7 12 4 17 -5 17 -5 0 6 -9 6
-21 9 -26 6 -5 -3 -14 1 -21 9 -7 8 -16 12 -21 9 -10 -6 -40 20 -34 30 3 3 2
4 -1 2 -6 -5 -158 66 -179 84 -8 7 -19 9 -24 5 -6 -3 -30 3 -53 14 -27 12 -45
16 -49 9 -4 -6 -9 -6 -12 -1 -3 5 -26 9 -51 9 -39 -1 -43 1 -35 17 11 19 24
24 14 5 -4 -7 -1 -6 7 3 22 26 40 28 181 20z m-233 -71 c-11 -7 -11 -10 -2
-10 7 0 10 -4 7 -10 -10 -16 71 -155 87 -147 2 1 -4 -4 -12 -12 -13 -11 -12
-12 6 -7 14 4 29 -3 53 -28 21 -21 29 -36 22 -41 -6 -3 -16 4 -21 17 -10 22
-10 22 -5 -3 3 -17 -1 -32 -13 -42 -17 -16 -21 -15 -56 18 -23 21 -35 39 -30
46 4 7 3 9 -3 6 -13 -8 -63 40 -63 59 0 8 -5 14 -11 14 -6 0 -9 7 -5 15 3 8 2
15 -3 15 -4 0 -8 14 -8 30 0 17 3 30 7 30 3 0 14 14 23 30 10 17 24 30 30 30
7 0 6 -4 -3 -10z m341 -239 c-6 -10 -7 -22 -3 -27 4 -5 -2 -2 -13 6 -10 8 -4
-4 15 -27 18 -24 40 -43 47 -43 8 0 11 -5 7 -12 -5 -7 -3 -8 6 -3 7 5 27 10
44 11 17 2 49 6 71 9 21 3 36 3 33 0 -10 -10 -141 -45 -193 -51 -83 -10 -89
-10 -118 -1 -24 8 -26 11 -15 25 11 13 11 14 -1 7 -9 -5 -7 2 5 18 10 15 25
27 33 27 8 0 11 3 8 6 -3 4 6 16 21 28 14 11 28 19 30 16 2 -3 8 3 13 13 13
23 22 22 10 -2z"/>
<path d="M3010 3836 c0 -2 7 -7 16 -10 8 -3 12 -2 9 4 -6 10 -25 14 -25 6z"/>
<path d="M2395 4020 c3 -5 8 -10 11 -10 2 0 4 5 4 10 0 6 -5 10 -11 10 -5 0
-7 -4 -4 -10z"/>
<path d="M333 3789 l-52 -111 26 -24 c32 -30 126 -59 263 -82 l103 -17 -42
-29 c-22 -16 -41 -30 -41 -31 0 -1 11 -2 25 -2 14 0 32 -7 42 -14 29 -24 81
-114 116 -200 57 -138 60 -123 -37 -171 -89 -44 -105 -65 -34 -43 24 6 64 15
89 18 l46 6 21 -77 c12 -42 24 -95 28 -118 l6 -40 -84 -64 c-114 -89 -239
-216 -266 -271 -27 -56 -29 -120 -4 -141 33 -30 92 -41 181 -35 102 7 193 33
316 92 75 36 108 60 199 146 213 202 306 337 306 443 0 80 -16 89 -25 15 -9
-78 -58 -190 -92 -212 -7 -4 -13 -14 -13 -21 0 -8 -7 -16 -15 -20 -8 -3 -15
-11 -15 -18 -1 -16 -49 -53 -57 -44 -4 3 -1 6 5 6 7 0 12 7 12 16 0 9 5 12 11
8 7 -4 10 -1 7 7 -3 8 3 25 13 38 11 13 19 37 19 52 0 16 3 29 8 29 10 0 6
111 -6 141 -6 15 -22 36 -37 47 -15 12 -24 25 -21 30 3 5 0 9 -7 9 -7 1 -39 8
-72 17 -79 21 -233 22 -241 1 -4 -8 -10 -13 -14 -10 -5 3 -7 -7 -5 -22 2 -16
4 -43 4 -61 1 -18 5 -31 9 -28 4 2 8 -3 9 -12 1 -9 7 -42 13 -72 11 -57 18
-116 24 -208 3 -45 1 -54 -18 -64 -11 -7 -25 -11 -31 -9 -5 1 -7 -1 -3 -5 5
-4 -2 -14 -13 -22 -26 -18 -38 -4 -40 48 -1 19 -3 44 -4 55 -1 11 -4 36 -6 55
-2 19 -7 40 -12 47 -5 7 -10 37 -12 67 -3 50 -13 92 -36 153 -4 12 -6 31 -4
42 3 15 0 18 -12 14 -10 -4 -14 -2 -9 5 3 6 -3 14 -16 18 l-21 6 24 15 c15 9
17 12 5 8 -16 -5 -17 -3 -5 11 17 21 20 44 4 38 -8 -3 -20 19 -35 66 -12 39
-27 73 -31 76 -5 3 -9 14 -9 24 0 10 -6 25 -13 32 -7 7 -22 28 -32 46 -11 17
-23 32 -28 32 -4 0 -6 4 -2 9 3 5 -4 12 -15 16 -24 8 -25 15 -6 41 14 18 14
18 12 -8 -2 -16 1 -28 6 -28 5 0 7 14 4 31 -6 38 2 61 18 52 6 -3 8 -2 3 2 -4
5 -35 9 -70 10 -34 1 -89 8 -122 15 -33 7 -68 13 -77 12 -10 0 -18 4 -18 9 0
5 -6 9 -12 8 -21 -2 -58 12 -58 23 0 5 -5 6 -12 2 -6 -4 -17 1 -23 10 -11 14
-9 24 9 56 23 42 41 46 74 17 10 -9 22 -14 25 -10 4 3 7 1 7 -6 0 -7 5 -9 11
-5 6 3 14 1 18 -5 4 -6 22 -13 39 -14 18 -1 32 -5 32 -8 0 -4 10 -7 23 -7 12
0 78 -10 147 -22 128 -22 182 -30 212 -31 10 0 20 -4 23 -10 4 -5 11 -9 16 -9
6 0 7 4 4 10 -3 5 10 3 29 -5 19 -8 53 -17 76 -20 63 -8 133 -26 157 -41 26
-16 57 -20 33 -4 -26 17 -2 11 32 -8 18 -10 39 -17 47 -14 8 3 11 0 7 -7 -5
-7 -1 -9 8 -5 9 3 16 1 16 -6 0 -6 5 -8 10 -5 6 3 10 2 10 -3 0 -5 9 -12 20
-15 20 -5 29 -37 9 -37 -5 0 -7 -4 -4 -10 3 -5 -15 -30 -40 -56 -41 -42 -50
-44 -46 -8 2 18 -67 74 -92 74 -15 0 -18 3 -9 8 11 8 -65 34 -108 38 -9 0 -31
6 -50 12 -44 14 -97 24 -132 26 -16 0 -28 4 -28 9 0 4 -11 5 -24 3 -14 -2 -27
1 -30 7 -2 7 -5 3 -5 -8 -1 -15 -3 -17 -10 -7 -6 10 -10 7 -15 -12 -6 -24 16
-96 29 -96 3 0 3 5 0 10 -3 6 -4 10 -1 10 8 0 41 -83 38 -93 -1 -5 2 -6 7 -3
5 4 13 -8 16 -26 4 -18 11 -39 16 -48 12 -20 32 -74 31 -81 0 -3 7 -10 17 -16
14 -9 36 -5 102 17 46 15 96 27 111 26 15 -1 29 1 30 4 2 3 25 18 52 34 59 34
158 133 176 175 7 17 10 38 6 46 -9 25 -142 82 -266 114 -63 17 -225 49 -359
71 -268 44 -345 61 -408 91 -49 24 -57 40 -42 86 22 68 2 40 -48 -68z m352
-209 c3 -5 1 -10 -4 -10 -6 0 -11 5 -11 10 0 6 2 10 4 10 3 0 8 -4 11 -10z
m378 -91 c116 -29 202 -63 226 -93 20 -24 4 -53 -48 -85 -61 -37 -241 -105
-250 -94 -4 4 -15 33 -26 63 -22 67 -91 208 -114 234 -15 18 -14 18 39 11 30
-4 108 -20 173 -36z m177 -390 c52 -11 102 -45 121 -82 18 -32 11 -130 -12
-192 -59 -158 -313 -318 -529 -332 -58 -4 -83 -2 -107 11 -74 38 -49 109 84
237 83 78 98 89 104 73 12 -34 31 -232 24 -255 -9 -26 -8 -26 88 36 l77 50 -5
65 c-4 36 -11 100 -16 143 -6 42 -7 81 -4 86 3 6 44 33 91 62 46 29 88 57 91
62 6 10 -85 -37 -164 -85 l-31 -19 -12 53 c-6 29 -13 63 -16 75 -6 23 -5 23
79 23 47 0 109 -5 137 -11z m80 -399 c-8 -5 -19 -10 -25 -10 -5 0 -3 5 5 10 8
5 20 10 25 10 6 0 3 -5 -5 -10z m-50 -44 c0 -2 -8 -10 -17 -17 -16 -13 -17
-12 -4 4 13 16 21 21 21 13z m-36 -47 c-3 -5 -10 -7 -15 -3 -5 3 -7 10 -3 15
3 5 10 7 15 3 5 -3 7 -10 3 -15z m-579 -9 c4 -6 1 -9 -6 -8 -6 2 -14 -3 -17
-11 -2 -8 0 -11 6 -7 7 4 9 -2 6 -18 -3 -17 5 -34 26 -58 29 -31 34 -33 105
-35 41 -1 92 3 112 9 21 6 47 12 58 13 40 4 85 18 85 26 0 5 3 8 8 7 4 -1 25
9 47 22 21 14 46 25 54 27 8 1 18 8 22 15 5 7 18 14 29 14 19 1 18 -2 -12 -32
-18 -18 -39 -34 -46 -34 -7 0 -15 -7 -19 -15 -7 -21 -100 -68 -115 -59 -6 4
-9 3 -5 -2 3 -5 -22 -18 -56 -29 -34 -11 -73 -25 -86 -31 -13 -7 -30 -10 -37
-7 -8 3 -21 0 -29 -7 -9 -7 -26 -10 -41 -6 -14 4 -23 3 -21 -1 3 -5 -9 -7 -26
-6 -18 2 -48 4 -67 6 -49 4 -81 23 -73 44 4 11 3 14 -6 9 -13 -9 -6 35 12 69
6 11 12 26 13 34 2 11 62 81 70 81 2 0 6 -5 9 -10z"/>
<path d="M2376 3812 c-3 -5 1 -9 9 -9 8 0 12 4 9 9 -3 4 -7 8 -9 8 -2 0 -6 -4
-9 -8z"/>
<path d="M3530 3701 c-25 -15 -93 -58 -151 -95 -91 -57 -154 -106 -137 -106 2
0 42 11 88 25 74 22 240 45 240 33 0 -3 -29 -25 -65 -49 -65 -44 -80 -61 -47
-52 10 2 23 -2 30 -9 13 -17 47 -191 62 -318 6 -52 13 -114 16 -138 l5 -42
-118 -56 c-111 -52 -207 -95 -262 -116 -18 -7 -21 -12 -13 -20 7 -7 12 -21 12
-31 0 -56 101 -124 227 -153 97 -22 235 -21 299 3 97 38 290 178 390 285 161
173 234 332 210 461 -10 53 -64 125 -130 175 -73 54 -254 142 -351 171 -51 14
-254 62 -260 61 0 0 -20 -13 -45 -29z m120 -15 c8 -1 22 -5 30 -8 18 -8 68
-19 93 -21 9 -1 17 -5 17 -10 0 -4 5 -5 10 -2 6 4 24 0 41 -9 16 -8 37 -12 46
-9 11 4 14 2 9 -5 -4 -7 -1 -12 7 -12 44 0 263 -122 252 -139 -3 -6 -1 -12 4
-15 5 -4 13 -1 17 5 5 8 3 9 -6 4 -9 -5 -11 -4 -6 3 11 18 90 -62 82 -84 -5
-13 -4 -14 7 -6 10 9 14 9 15 -1 0 -6 8 -40 17 -74 11 -45 12 -69 5 -88 -6
-15 -8 -31 -4 -36 3 -5 0 -9 -5 -9 -6 0 -11 5 -11 12 0 6 -3 8 -6 5 -4 -4 -2
-12 4 -20 13 -16 4 -59 -11 -50 -5 3 -7 2 -4 -4 6 -9 -14 -40 -60 -91 -26 -28
-29 -37 -10 -26 6 4 -3 -7 -21 -25 -18 -17 -30 -37 -26 -43 4 -7 3 -8 -5 -4
-6 4 -8 12 -5 18 5 7 2 8 -5 4 -7 -5 -10 -15 -7 -23 7 -17 -12 -46 -24 -38 -4
2 -15 -4 -25 -15 -10 -11 -15 -20 -12 -20 15 0 -41 -48 -70 -59 -18 -7 -30
-17 -27 -22 3 -5 -2 -9 -10 -9 -8 0 -18 5 -21 10 -4 6 -12 8 -18 4 -7 -3 -3 2
8 10 11 9 34 30 52 47 27 26 34 29 54 19 12 -7 19 -8 15 -2 -3 6 -2 13 4 17 5
3 10 11 10 18 0 6 -7 2 -15 -9 -8 -10 -15 -14 -15 -8 0 6 11 21 25 34 13 12
21 28 18 34 -4 6 1 5 10 -2 14 -12 16 -11 12 7 -2 13 4 26 16 34 10 8 16 17
13 20 -4 4 1 18 10 32 9 14 14 25 10 25 -4 0 -2 6 3 13 14 18 16 123 3 148 -8
15 -9 19 -1 15 18 -12 13 4 -19 51 -17 24 -25 41 -18 37 7 -5 -6 15 -30 43
-24 29 -52 55 -62 58 -11 4 -20 10 -20 15 0 4 -8 10 -17 14 -24 8 -55 28 -69
45 -6 8 -16 11 -21 8 -6 -4 -14 0 -17 9 -3 8 -11 14 -18 13 -7 -1 -31 6 -53
16 -22 10 -50 19 -62 19 -12 1 -25 5 -29 9 -4 4 -12 7 -17 7 -6 0 -7 -3 -4 -7
4 -3 2 -12 -4 -20 -7 -8 -9 -28 -5 -51 4 -20 9 -55 12 -77 3 -21 8 -44 12 -50
4 -5 7 -23 9 -40 1 -16 8 -82 16 -145 8 -63 15 -161 16 -218 1 -57 4 -109 7
-116 5 -13 -14 -23 -89 -46 -45 -14 -54 -8 -58 40 -3 41 -15 61 -33 54 -7 -3
-13 2 -13 11 0 8 3 15 7 15 3 0 15 7 26 16 10 8 12 12 4 8 -13 -7 -13 -5 -2 8
7 8 10 22 7 29 -2 8 -7 43 -10 79 -3 36 -9 99 -15 140 -6 41 -10 85 -10 98 0
25 -38 151 -50 167 -5 6 8 20 30 34 74 46 53 90 -40 86 -30 -1 -63 -6 -74 -10
-16 -7 -17 -6 -7 14 7 12 23 26 36 31 13 5 26 14 30 19 9 15 28 14 19 -1 -4
-7 -4 -10 0 -6 4 3 7 10 6 14 -4 16 75 54 100 48 14 -3 32 -7 40 -8z m231
-222 c104 -55 192 -140 220 -212 59 -158 -31 -335 -239 -468 -98 -64 -143 -77
-242 -68 -47 3 -112 15 -145 25 -65 20 -113 55 -97 71 13 13 143 58 170 58 21
0 22 -4 22 -69 l0 -69 68 28 c37 15 82 31 100 35 l32 7 0 102 c0 174 -45 538
-76 620 -8 22 94 -11 187 -60z m-489 -717 c36 -27 158 -57 241 -59 31 -1 43
-5 35 -10 -8 -6 -4 -7 12 -2 14 4 40 11 59 15 19 4 48 18 64 30 16 12 26 15
22 8 -6 -10 -2 -9 11 2 33 28 81 40 95 23 10 -13 9 -16 -7 -13 -3 1 -19 -11
-34 -26 -17 -16 -35 -25 -44 -22 -10 4 -13 1 -10 -7 6 -15 -55 -48 -70 -39 -5
4 -6 1 -1 -7 6 -10 4 -12 -10 -6 -16 6 -16 4 -4 -11 8 -9 9 -14 3 -10 -6 4
-27 -1 -45 -10 -40 -20 -196 -21 -270 -3 -24 7 -52 12 -61 13 -10 1 -18 4 -18
7 0 3 -10 6 -21 7 -12 1 -30 10 -40 19 -11 9 -19 14 -19 10 0 -12 -47 38 -53
56 -4 11 1 22 11 28 14 9 14 10 -5 5 -40 -11 -25 4 30 29 74 34 81 35 89 16 4
-10 22 -29 40 -43z"/>
<path d="M4030 3540 c8 -5 20 -10 25 -10 6 0 3 5 -5 10 -8 5 -19 10 -25 10 -5
0 -3 -5 5 -10z"/>
<path d="M4255 3150 c3 -5 8 -10 11 -10 2 0 4 5 4 10 0 6 -5 10 -11 10 -5 0
-7 -4 -4 -10z"/>
<path d="M3981 2832 c-8 -15 -5 -18 14 -20 13 -1 26 5 29 15 5 13 4 14 -8 4
-11 -9 -16 -9 -22 0 -4 8 -3 9 4 5 7 -4 12 -2 12 3 0 17 -18 13 -29 -7z"/>
<path d="M3245 2701 c-3 -5 -2 -12 3 -15 5 -3 9 1 9 9 0 17 -3 19 -12 6z"/>
<path d="M3668 2603 c7 -3 16 -2 19 1 4 3 -2 6 -13 5 -11 0 -14 -3 -6 -6z"/>
<path d="M2987 3667 l-68 -32 69 -57 c38 -32 97 -87 131 -122 l62 -65 62 36
c77 45 72 40 58 57 -11 13 -18 13 -52 0 -31 -10 -39 -11 -36 -1 2 6 11 11 18
9 8 -2 11 0 7 4 -4 4 -2 14 4 22 11 12 -2 29 -76 98 -49 46 -94 84 -100 83 -6
0 -42 -15 -79 -32z m107 -30 c10 -9 22 -14 28 -11 7 4 8 2 4 -4 -4 -7 -4 -12
1 -12 4 0 19 -10 33 -23 14 -12 19 -17 11 -12 -11 8 -13 7 -7 -3 4 -7 18 -17
30 -22 13 -4 23 -15 23 -24 0 -8 -4 -13 -9 -10 -4 3 -8 -3 -8 -13 0 -15 -2
-16 -10 -3 -5 8 -10 10 -10 5 0 -6 7 -20 15 -32 10 -14 12 -24 5 -28 -6 -4 -8
-11 -5 -16 3 -5 0 -6 -7 -4 -7 3 -18 15 -24 28 -5 12 -16 21 -23 19 -7 -1 -10
2 -6 8 3 5 -1 10 -9 10 -9 0 -16 3 -16 8 0 4 -12 21 -26 37 -14 17 -22 23 -18
15 4 -9 -1 -7 -13 5 -11 11 -18 24 -15 29 3 5 1 6 -5 3 -5 -4 -20 5 -31 18
l-22 25 28 14 c34 18 64 16 86 -7z"/>
<path d="M3155 3490 c3 -5 8 -10 11 -10 2 0 4 5 4 10 0 6 -5 10 -11 10 -5 0
-7 -4 -4 -10z"/>
<path d="M2614 3539 c-17 -5 -51 -29 -77 -54 -41 -41 -49 -45 -80 -40 -24 5
-45 1 -73 -14 -40 -20 -172 -51 -219 -51 -15 0 -24 -4 -20 -10 4 -6 11 -8 16
-5 5 4 81 1 168 -6 l159 -12 5 -256 c5 -271 16 -344 55 -383 34 -34 74 -16
172 78 l86 83 12 -43 c14 -55 61 -106 96 -106 38 0 94 31 156 87 57 51 150
158 150 173 0 5 -35 -17 -77 -49 -43 -32 -86 -61 -96 -64 -25 -9 -53 23 -68
75 -12 44 -7 250 7 296 6 19 -5 15 -86 -33 -51 -30 -98 -57 -104 -60 -8 -4 -8
-6 0 -10 13 -7 7 -233 -7 -250 -4 -6 -26 -21 -49 -34 l-40 -23 -16 39 c-12 27
-17 82 -20 203 -3 91 -6 186 -8 211 l-3 47 58 -5 c52 -5 61 -3 89 21 17 14 35
26 39 26 4 0 1 -34 -7 -75 -8 -41 -13 -78 -10 -80 3 -3 46 19 96 48 71 41 89
56 80 65 -9 9 -9 31 -1 89 6 43 10 80 8 81 -2 2 -29 -15 -60 -39 l-56 -42
-111 7 c-62 4 -116 10 -121 13 -5 3 -7 30 -5 59 3 30 2 54 -1 53 -3 0 -20 -5
-37 -10z m-20 -41 c-5 -9 -2 -9 9 1 18 14 18 15 21 -43 2 -35 49 -59 120 -60
37 -1 66 -5 66 -9 0 -4 -2 -6 -4 -4 -2 1 -12 -5 -22 -14 -20 -17 -79 -35 -71
-22 9 15 -50 8 -68 -7 -16 -13 -17 -33 -11 -225 5 -182 9 -243 15 -278 0 -4 4
-6 9 -5 14 4 53 -23 46 -33 -4 -6 -11 -6 -20 2 -9 7 -14 8 -13 3 11 -37 -36
-74 -91 -74 -30 0 -35 9 -32 53 1 10 -3 15 -8 12 -6 -3 -10 -3 -10 2 -1 4 -3
112 -6 238 -2 127 -7 241 -10 255 -3 19 -2 22 6 10 18 -27 11 9 -7 38 -24 38
-32 42 -80 42 -24 0 -43 5 -43 11 0 5 -5 7 -12 3 -7 -4 -8 -3 -4 5 4 6 12 9
17 5 5 -3 16 -1 24 6 8 7 27 9 49 4 34 -6 39 -3 84 45 47 51 60 62 46 39z
m371 -92 c-1 -12 -3 -25 -4 -29 0 -5 -7 -5 -13 -1 -9 5 -9 2 1 -9 7 -9 10 -17
6 -17 -4 0 -2 -6 4 -14 9 -11 6 -17 -14 -30 -14 -9 -25 -14 -25 -11 0 4 -13
-3 -29 -15 -21 -14 -32 -17 -37 -9 -4 7 -3 9 3 6 6 -4 9 10 8 36 -1 31 4 47
19 60 l21 18 -22 -10 c-14 -7 -24 -8 -28 -1 -5 8 21 15 46 12 4 -1 14 7 23 17
22 24 44 23 41 -3z m-15 -226 c0 -5 -4 -12 -10 -15 -5 -3 -10 -11 -10 -16 0
-6 5 -7 10 -4 6 3 10 -1 10 -10 0 -9 -3 -14 -7 -12 -10 6 -9 -82 1 -143 10
-61 37 -131 47 -124 5 3 16 -2 25 -11 12 -12 20 -13 27 -6 20 20 30 11 12 -9
-10 -11 -22 -17 -28 -13 -5 3 -7 1 -4 -4 4 -6 -1 -17 -11 -24 -9 -7 -14 -9
-10 -5 9 11 -9 36 -25 36 -6 0 -3 -6 7 -13 18 -13 18 -14 -2 -33 -28 -26 -74
-29 -99 -7 -22 19 -39 59 -34 82 1 7 -2 10 -8 6 -13 -8 -13 -7 -12 125 1 60 5
106 11 108 6 2 10 13 10 25 0 18 -2 19 -10 7 -5 -8 -10 -10 -10 -4 0 10 10 20
63 57 22 15 57 20 57 7z"/>
<path d="M1495 3449 c-4 -6 -4 -13 -1 -16 3 -4 6 -1 6 6 0 7 5 9 12 5 7 -4 8
-3 4 4 -9 15 -13 15 -21 1z"/>
<path d="M3256 3372 c-3 -5 1 -9 9 -9 8 0 12 4 9 9 -3 4 -7 8 -9 8 -2 0 -6 -4
-9 -8z"/>
<path d="M1957 3320 l-79 -28 -51 -88 c-27 -49 -51 -90 -52 -92 -1 -1 -42 38
-90 87 -99 101 -87 100 -169 23 l-43 -41 -42 21 c-23 11 -76 25 -117 31 -70
10 -77 10 -90 -8 -8 -10 -14 -13 -14 -7 0 7 -5 12 -12 12 -9 0 -9 -3 0 -12 6
-6 42 -12 79 -14 37 -1 97 -12 132 -23 35 -11 68 -18 74 -14 6 3 7 1 3 -6 -4
-6 -13 -10 -20 -9 -6 2 -13 -1 -14 -6 -6 -21 27 -12 39 11 7 14 26 31 41 39
15 8 28 19 28 24 0 6 7 10 16 10 8 0 12 5 9 10 -26 42 65 -36 123 -106 9 -11
27 -26 40 -33 12 -7 20 -17 17 -24 -4 -7 0 -4 8 5 8 10 17 14 21 10 4 -4 6 0
4 8 -2 8 3 14 10 13 6 -2 12 3 12 11 0 7 6 19 14 26 8 6 12 18 9 26 -3 8 -1
15 3 15 36 5 58 2 61 -8 3 -7 0 -13 -7 -13 -6 0 -9 4 -6 8 2 4 -4 8 -15 8 -18
0 -18 -2 -4 -12 18 -13 9 -48 -11 -40 -8 3 -11 0 -8 -8 3 -7 -1 -20 -9 -27
-25 -25 -27 -60 -7 -87 11 -13 17 -29 13 -35 -3 -5 -1 -7 5 -3 14 8 74 -43 65
-56 -4 -7 -1 -8 7 -3 10 6 12 4 6 -11 -4 -10 -4 -15 0 -11 4 4 22 -4 39 -17
29 -23 34 -24 54 -10 11 8 21 12 21 7 0 -4 7 1 15 11 8 11 15 15 15 9 0 -13
-25 -35 -32 -28 -3 3 -18 -7 -34 -21 -25 -24 -43 -31 -116 -49 -21 -4 -71 19
-61 28 3 4 -1 7 -11 7 -9 0 -14 5 -11 10 3 6 2 10 -2 10 -5 0 -25 16 -44 35
l-36 34 -34 -32 c-19 -18 -47 -48 -62 -66 -15 -18 -30 -31 -33 -29 -3 3 6 19
20 35 14 17 22 34 18 38 -4 5 -2 5 4 2 11 -7 34 33 34 59 0 8 5 12 10 9 16
-10 11 11 -9 36 -10 13 -20 29 -22 34 -2 6 -7 9 -12 7 -4 -1 -6 2 -5 6 2 5
-12 21 -30 37 -27 23 -31 30 -20 44 10 13 10 14 -2 4 -18 -16 -34 -17 -24 -1
4 7 3 8 -4 4 -7 -4 -12 -2 -12 3 0 6 -5 11 -11 11 -15 0 0 -20 74 -104 l59
-65 -64 -93 c-34 -51 -89 -120 -120 -153 -32 -32 -58 -60 -58 -62 0 -1 24 9
53 22 28 14 57 25 64 25 10 0 73 66 156 165 l26 30 63 -62 c35 -35 70 -63 78
-63 8 1 32 7 52 14 21 8 35 10 32 5 -21 -35 102 46 150 98 l33 36 44 -48 c24
-26 50 -56 57 -66 19 -27 83 -24 157 6 33 14 66 25 73 25 21 0 13 16 -14 31
-26 13 -194 187 -194 199 0 4 42 53 93 109 134 151 133 147 41 130 -97 -18
-120 -32 -164 -101 -23 -35 -43 -63 -45 -63 -3 0 -34 36 -71 80 -36 44 -68 82
-70 84 -1 2 -42 -18 -90 -43 -47 -26 -84 -41 -82 -34 3 7 35 29 72 49 66 36
104 65 95 72 -2 2 -39 -8 -82 -23z m147 -152 c-5 -7 -3 -8 6 -3 10 6 12 4 7
-9 -4 -10 -3 -15 3 -11 5 3 20 -3 32 -14 12 -12 27 -21 32 -21 12 1 54 30 43
30 -4 0 9 21 28 46 19 25 35 50 35 54 0 5 7 6 17 3 10 -4 14 -2 10 4 -4 7 0
10 10 8 10 -1 22 0 28 3 5 3 17 7 27 7 13 1 7 -9 -20 -39 -20 -23 -40 -40 -45
-38 -5 1 -6 -2 -2 -8 3 -5 -5 -21 -18 -34 -14 -13 -34 -38 -46 -55 l-22 -30
25 -39 c14 -22 22 -43 18 -48 -4 -4 -2 -4 5 0 12 7 70 -43 65 -56 -1 -5 4 -8
12 -8 8 0 18 -5 22 -12 5 -7 3 -8 -6 -3 -9 5 -11 4 -6 -3 4 -7 12 -12 17 -12
6 0 17 -6 25 -14 12 -13 11 -17 -8 -30 -11 -8 -25 -13 -29 -10 -4 2 -10 0 -14
-6 -3 -5 -26 -10 -50 -10 -41 0 -47 3 -70 40 -23 37 -44 56 -30 28 4 -7 0 -4
-9 6 -8 10 -13 23 -9 29 3 6 1 7 -4 4 -6 -4 -13 -1 -16 7 -7 17 -32 15 -49 -2
-14 -14 -52 -16 -43 -2 3 5 12 7 19 4 8 -3 17 -1 21 5 3 7 0 8 -9 5 -12 -5
-14 1 -9 28 3 25 0 39 -12 51 -9 9 -14 21 -10 26 3 5 0 13 -6 17 -8 5 -10 2
-5 -7 4 -8 -1 -3 -12 11 -11 13 -20 29 -19 35 1 5 -3 9 -10 8 -6 -1 -17 4 -23
12 -7 8 -9 15 -5 15 4 0 -4 11 -18 24 -20 18 -23 26 -14 36 8 8 5 8 -10 -1
-18 -11 -25 -11 -35 -1 -10 10 -10 15 2 22 8 6 21 8 28 5 7 -3 10 0 7 5 -3 5
5 12 19 16 14 3 30 12 36 19 9 11 20 5 56 -31 26 -25 42 -49 38 -56z m-96 -98
l73 -89 -31 -54 -30 -54 -88 83 -87 82 19 34 c23 39 59 87 66 87 3 0 38 -40
78 -89z"/>
<path d="M2280 3149 c0 -5 5 -7 10 -4 6 3 10 8 10 11 0 2 -4 4 -10 4 -5 0 -10
-5 -10 -11z"/>
<path d="M417 3281 l-59 -57 11 -76 c14 -98 28 -161 46 -205 27 -64 9 -46 -43
44 -28 49 -66 109 -85 135 l-34 47 -62 -63 c-39 -39 -59 -66 -52 -70 31 -20
170 -258 216 -373 l22 -54 61 67 61 66 -19 39 c-11 21 -20 42 -20 46 0 4 16
19 35 33 19 14 47 40 62 59 23 30 24 35 10 43 -28 15 -77 225 -77 331 0 26 -3
47 -7 46 -5 0 -34 -26 -66 -58z m41 -36 c-3 -13 -2 -22 2 -20 4 2 7 -12 8 -31
1 -19 4 -40 8 -46 4 -6 9 -29 12 -52 2 -23 9 -46 14 -53 5 -7 7 -17 3 -23 -4
-6 -1 -17 5 -25 6 -8 8 -20 4 -26 -4 -7 -3 -9 4 -5 15 9 26 -12 13 -28 -6 -7
-7 -17 -3 -21 4 -5 2 -5 -4 -2 -12 7 -76 -48 -66 -57 3 -4 -2 -4 -12 0 -14 5
-17 4 -12 -4 4 -7 2 -12 -4 -12 -7 0 -8 -5 -3 -12 4 -7 8 -15 9 -18 12 -38 18
-49 25 -44 5 3 6 -3 2 -13 -8 -21 -50 -63 -64 -63 -5 0 -9 -8 -9 -17 -1 -10
-14 13 -30 50 -17 38 -39 81 -50 97 -11 15 -20 33 -20 38 0 6 -4 12 -8 14 -4
2 -18 24 -30 51 -12 26 -27 47 -34 47 -6 0 -9 3 -5 6 3 4 -1 13 -9 21 -8 8
-12 19 -9 24 4 5 2 9 -3 9 -6 0 -12 7 -15 14 -4 10 7 23 29 36 19 12 32 26 28
31 -6 11 7 12 22 1 22 -15 71 -99 69 -120 -1 -11 2 -19 6 -16 10 6 39 -24 39
-42 0 -9 5 -12 12 -8 7 5 9 2 6 -8 -8 -20 27 -42 40 -25 18 23 19 42 5 70 -8
17 -10 27 -3 27 6 0 5 9 -4 23 -7 12 -17 45 -21 72 -16 112 -13 145 12 145 8
0 11 5 8 10 -3 6 -1 10 5 10 6 0 8 5 5 10 -3 6 1 10 11 10 12 0 15 -6 12 -25z"/>
<path d="M465 2929 c-4 -6 -5 -12 -2 -15 2 -3 7 2 10 11 7 17 1 20 -8 4z"/>
<path d="M5070 3330 c-9 -6 -10 -10 -3 -10 6 0 15 5 18 10 8 12 4 12 -15 0z"/>
<path d="M5718 3281 c-89 -54 -86 -45 -97 -266 -6 -112 -8 -123 -15 -80 -9 61
-54 243 -64 261 -5 9 -26 1 -80 -33 -62 -39 -73 -49 -67 -67 42 -133 85 -344
85 -418 0 -21 4 -38 9 -38 5 0 41 21 81 47 l72 47 -6 42 -5 43 62 35 c34 19
70 43 80 54 17 18 17 20 1 26 -15 6 -16 19 -11 114 4 59 14 145 22 191 9 46
15 84 13 85 -2 1 -37 -18 -80 -43z m38 -30 c0 -13 -5 -17 -16 -13 -12 5 -13 3
-4 -9 8 -10 9 -32 3 -74 -11 -78 -9 -206 4 -222 7 -10 4 -13 -9 -13 -16 0 -17
-2 -4 -10 12 -8 11 -10 -7 -10 -13 0 -23 -5 -23 -11 0 -5 -4 -7 -10 -4 -5 3
-10 2 -10 -4 0 -6 -10 -13 -23 -16 -28 -7 -56 -55 -53 -90 3 -19 -5 -32 -33
-53 -54 -42 -65 -37 -66 30 0 31 -3 54 -6 52 -4 -2 -9 13 -12 34 -13 78 -36
182 -45 199 -5 10 -8 28 -7 40 1 12 -2 20 -7 17 -4 -3 -8 -2 -8 1 0 11 54 50
63 47 5 -1 14 3 21 10 6 7 10 11 8 9 -1 -2 6 -13 15 -24 10 -11 13 -17 6 -14
-8 5 -7 -1 2 -20 7 -16 25 -70 38 -121 14 -51 27 -95 30 -98 11 -12 25 7 31
41 4 19 12 35 18 35 7 0 6 5 -2 15 -9 11 -9 20 3 44 12 25 12 29 1 24 -11 -4
-12 0 -5 19 5 13 7 37 4 52 -4 21 -3 27 6 22 9 -6 10 0 5 20 -5 19 -4 25 5 20
8 -5 8 0 1 18 -5 14 -7 27 -5 27 16 4 23 7 47 17 14 6 29 16 33 21 9 15 11 14
11 -8z"/>
<path d="M5605 2839 c-4 -6 -5 -12 -2 -15 2 -3 7 2 10 11 7 17 1 20 -8 4z"/>
<path d="M5117 3314 c-3 -4 -2 -14 2 -23 30 -57 13 -223 -38 -371 -26 -76 -69
-180 -74 -180 -1 0 -2 10 -3 23 -1 12 -17 101 -37 197 -19 96 -38 201 -42 233
-4 33 -11 57 -18 57 -7 0 -53 -22 -103 -49 l-91 -48 -27 43 c-27 42 -106 104
-133 104 -23 0 -52 -18 -155 -97 -103 -79 -117 -100 -134 -208 -5 -32 -16 -48
-55 -80 -27 -22 -49 -43 -49 -47 0 -4 15 -2 32 3 59 17 65 13 71 -41 7 -58 39
-134 70 -169 l22 -24 -40 6 c-22 4 -110 12 -196 19 l-156 11 -101 -64 c-55
-35 -99 -65 -98 -67 2 -1 66 -7 142 -12 278 -20 553 -79 684 -145 58 -29 64
-38 50 -65 -6 -11 -7 -20 -3 -20 14 1 138 179 141 203 4 30 -37 50 -177 86
l-104 27 44 26 c89 53 253 207 237 224 -3 2 -36 -19 -74 -47 -38 -28 -87 -60
-108 -71 -37 -19 -41 -19 -73 -4 -25 12 -41 31 -58 69 -39 82 -39 82 72 96 93
11 98 13 149 57 53 45 53 45 47 92 -3 26 -10 55 -15 65 -10 20 1 22 24 5 10
-9 18 -38 22 -82 9 -91 39 -245 77 -386 27 -102 29 -115 15 -126 -25 -18 -19
-24 22 -24 37 0 39 -2 67 -60 16 -33 31 -60 35 -60 3 0 4 15 2 33 -5 49 14 64
103 82 97 20 219 78 298 141 32 25 56 48 54 51 -3 2 -31 -12 -64 -32 -58 -34
-157 -67 -235 -78 l-36 -5 38 55 c63 90 131 269 160 427 10 52 17 70 31 73 11
3 19 8 19 12 0 3 -31 28 -68 56 -37 27 -85 64 -106 82 -41 34 -48 37 -59 27z
m-539 -66 c7 -10 20 -18 28 -18 33 0 86 -75 91 -128 1 -21 5 -49 7 -64 5 -27
-15 -44 -37 -31 -7 3 -9 3 -5 -2 4 -4 3 -16 -3 -26 -10 -20 -59 -36 -129 -42
-53 -5 -91 -19 -108 -40 -13 -15 -12 -17 27 -123 12 -32 83 -80 101 -69 12 7
13 -5 2 -20 -4 -6 -20 -22 -37 -36 -30 -25 -43 -49 -27 -49 5 0 19 -9 32 -20
12 -11 26 -17 31 -14 5 3 28 -1 51 -7 24 -7 46 -13 51 -15 4 -1 8 -3 10 -4 1
-1 15 -4 30 -6 36 -4 56 -20 54 -44 -1 -11 -3 -17 -5 -15 -5 5 -72 -83 -72
-95 0 -5 -21 3 -47 19 -27 15 -82 38 -123 51 -41 12 -92 29 -113 36 -20 8 -51
14 -67 14 -17 0 -30 4 -30 8 0 11 -305 52 -390 53 -37 1 -41 9 -13 32 48 38
94 54 133 46 19 -5 42 -6 50 -4 8 3 74 -2 145 -9 128 -14 130 -14 148 6 12 14
14 24 7 33 -5 6 -6 16 -2 20 4 5 2 5 -5 1 -29 -16 -82 137 -62 176 8 14 6 16
-7 11 -12 -4 -15 -3 -10 5 4 7 1 15 -8 18 -9 3 -13 10 -10 15 3 5 9 7 14 4 4
-3 6 4 3 15 -6 22 12 28 21 8 6 -13 4 1 -8 55 -4 15 -2 27 3 27 5 0 8 8 7 18
-7 44 37 104 72 99 25 -3 25 -5 23 -78 -2 -56 2 -79 14 -94 9 -11 13 -13 9 -5
-7 13 -5 13 8 2 11 -9 23 -10 42 -2 15 5 38 10 50 10 13 0 31 9 41 20 22 25
15 81 -16 124 -12 16 -17 26 -10 22 7 -5 9 -1 5 9 -4 9 -9 14 -11 11 -3 -3
-17 6 -31 19 -14 13 -29 22 -34 19 -14 -9 -8 10 11 34 11 12 26 22 35 22 8 0
18 4 21 10 8 14 28 8 43 -12z m27 -6 c-3 -3 -11 0 -18 7 -9 10 -8 11 6 5 10
-3 15 -9 12 -12z m609 -22 c-5 8 15 -5 43 -30 40 -34 49 -46 39 -54 -7 -6 -19
-40 -26 -76 -6 -36 -18 -82 -26 -103 -8 -21 -12 -42 -9 -47 3 -5 -2 -15 -10
-23 -8 -9 -15 -27 -15 -40 0 -13 -11 -41 -25 -61 -14 -21 -23 -41 -20 -46 2
-4 -4 -19 -15 -33 -11 -14 -20 -30 -20 -35 0 -5 -7 -15 -15 -22 -8 -7 -13 -16
-10 -20 3 -5 0 -10 -7 -12 -23 -8 -18 -45 7 -56 17 -8 25 -8 25 -1 0 6 5 7 11
3 8 -4 7 -9 -2 -15 -7 -4 -17 -5 -22 -2 -5 3 -12 0 -16 -6 -4 -6 -26 -12 -50
-13 -26 -1 -45 -7 -51 -17 -5 -9 -10 -11 -10 -6 0 6 -4 4 -8 -3 -11 -17 -39
-5 -45 19 -3 11 -9 19 -14 18 -4 -1 -15 -1 -23 0 -13 1 -13 2 0 11 8 5 10 10
4 10 -12 0 -27 62 -28 116 -1 18 -9 41 -19 51 -9 11 -15 22 -12 24 2 3 0 21
-6 40 -5 19 -12 45 -14 59 -3 14 -9 50 -15 80 -12 66 -20 113 -24 157 -2 18
-8 39 -15 46 -13 17 -5 28 17 20 8 -4 13 -2 9 3 -3 5 17 21 44 35 l49 27 6
-34 c3 -18 7 -46 7 -61 1 -15 4 -30 7 -33 3 -3 14 -54 23 -113 10 -60 28 -138
40 -174 30 -89 49 -91 87 -10 48 103 57 130 70 192 7 33 15 67 17 75 9 23 13
52 13 95 1 22 7 43 13 47 9 6 9 8 -1 8 -9 0 -10 5 -3 19 6 10 9 20 8 22 -1 2
8 -7 21 -21 13 -14 20 -18 16 -10z m-796 -59 c-6 -10 -17 -18 -24 -18 -21 0
-17 15 6 22 11 4 17 11 14 17 -4 7 -2 8 4 4 9 -5 9 -12 0 -25z m80 -24 c26
-27 62 -100 62 -128 0 -4 -21 -11 -47 -14 -27 -4 -56 -9 -65 -12 -16 -4 -18 3
-18 54 0 79 10 133 24 133 7 0 26 -15 44 -33z m92 -432 c-7 -9 -15 -13 -19
-10 -3 3 1 10 9 15 21 14 24 12 10 -5z m278 -10 c-3 -3 -9 2 -12 12 -6 14 -5
15 5 6 7 -7 10 -15 7 -18z"/>
<path d="M5057 2615 c-6 -15 10 -32 20 -21 4 3 1 6 -5 6 -6 0 -9 7 -6 15 4 8
4 15 1 15 -3 0 -7 -7 -10 -15z"/>
<path d="M165 3181 c-3 -5 -2 -12 3 -15 5 -3 9 1 9 9 0 17 -3 19 -12 6z"/>
<path d="M3127 2989 c7 -7 15 -10 18 -7 3 3 -2 9 -12 12 -14 6 -15 5 -6 -5z"/>
<path d="M5745 2831 c-3 -5 -2 -12 3 -15 5 -3 9 1 9 9 0 17 -3 19 -12 6z"/>
<path d="M2037 2750 c-284 -30 -614 -135 -794 -253 -58 -38 -207 -177 -178
-165 6 2 75 36 155 75 280 137 452 177 760 177 210 -1 308 -13 393 -49 44 -18
53 -35 37 -65 -10 -18 -9 -21 1 -18 17 6 139 207 139 228 0 39 -118 69 -295
75 -71 2 -170 0 -218 -5z m272 -24 c18 0 65 -5 105 -13 39 -8 76 -15 83 -16 7
0 9 -5 6 -10 -4 -7 1 -8 12 -3 14 5 15 3 7 -6 -10 -13 -12 -18 -12 -39 0 -8
-5 -7 -15 1 -13 11 -14 10 -10 -2 5 -12 -13 -54 -40 -96 -1 -1 -33 8 -71 22
-38 13 -98 29 -134 36 -36 6 -71 17 -79 23 -11 9 -13 9 -8 1 5 -9 -18 -12 -83
-11 -53 1 -84 5 -77 10 7 5 -2 6 -23 3 -19 -3 -66 -8 -105 -11 -38 -4 -79 -9
-90 -11 -17 -5 -18 -3 -5 6 12 10 11 10 -5 4 -11 -4 -36 -8 -57 -9 -20 0 -34
-2 -32 -5 4 -3 -74 -23 -136 -34 -8 -2 -28 -9 -45 -15 -16 -7 -37 -14 -45 -17
-81 -20 -113 -31 -102 -36 8 -4 8 -6 0 -4 -22 4 -20 26 2 26 12 0 18 4 15 10
-4 6 7 13 24 16 17 4 31 11 31 16 0 6 7 5 16 -2 12 -11 15 -11 12 1 -2 8 4 13
14 13 10 -1 15 2 12 7 -3 5 4 9 15 9 11 0 22 4 25 9 3 5 16 7 28 3 14 -3 19
-2 14 6 -4 8 1 12 13 13 21 2 37 5 46 9 3 1 8 3 13 4 4 1 12 4 17 8 6 3 28 9
50 13 22 4 45 12 51 16 6 5 20 6 29 2 11 -4 16 -2 12 3 -3 5 2 10 11 11 28 2
93 11 167 23 39 6 119 13 178 15 60 2 111 6 114 9 4 4 9 3 12 -2 3 -4 21 -7
40 -6z m-986 -229 c3 -8 0 -14 -6 -14 -7 0 -19 -3 -27 -5 -8 -3 -12 -3 -7 -1
4 3 5 9 2 14 -4 5 2 6 11 2 12 -4 15 -3 10 5 -4 7 -3 12 2 12 6 0 12 -6 15
-13z m-63 -27 c0 -5 -10 -15 -22 -21 -23 -12 -23 -12 -4 10 21 23 26 26 26 11z"/>
<path d="M2490 2670 c6 -11 13 -20 16 -20 2 0 0 9 -6 20 -6 11 -13 20 -16 20
-2 0 0 -9 6 -20z"/>
<path d="M4766 2743 c-6 -14 -5 -15 5 -6 7 7 10 15 7 18 -3 3 -9 -2 -12 -12z"/>
<path d="M4703 2725 c0 -8 4 -12 9 -9 5 3 6 10 3 15 -9 13 -12 11 -12 -6z"/>
<path d="M2931 2637 l-64 -67 -62 66 -61 66 -69 -76 -68 -76 59 -54 59 -53 0
-124 c0 -165 18 -174 25 -13 5 130 3 125 76 205 l42 46 47 -60 48 -59 9 -106
c5 -59 8 -174 6 -256 -2 -109 0 -150 9 -153 9 -3 13 61 15 258 l3 262 60 54
60 54 -26 22 c-15 12 -44 47 -65 77 l-39 55 -64 -68z m-134 -35 c18 -18 33
-36 33 -40 0 -4 -21 -29 -46 -56 l-46 -49 -18 24 c-10 13 -16 28 -13 33 3 5 2
6 -4 3 -5 -4 -20 3 -31 14 -24 21 -29 35 -10 23 8 -5 9 -2 5 9 -4 11 1 20 13
27 16 9 20 8 20 -5 0 -9 -4 -13 -10 -10 -6 4 -7 -1 -3 -11 6 -15 7 -15 15 1 5
9 7 23 4 32 -4 9 2 23 14 33 11 9 16 21 12 26 -15 18 35 -23 65 -54z m242 -3
c12 -16 20 -36 17 -44 -3 -8 -1 -15 4 -15 6 0 10 5 10 12 0 6 3 8 7 4 4 -4
-15 -27 -42 -52 l-50 -45 -28 31 c-15 17 -24 36 -21 42 5 7 2 9 -8 6 -8 -4
-15 -1 -15 5 0 7 -2 18 -4 25 -2 8 5 19 15 25 11 7 31 25 45 41 23 26 26 27
36 11 5 -10 21 -31 34 -46z"/>
<path d="M2915 2580 c-3 -6 1 -7 9 -4 18 7 21 14 7 14 -6 0 -13 -4 -16 -10z"/>
<path d="M5356 2698 c3 -5 10 -6 15 -3 13 9 11 12 -6 12 -8 0 -12 -4 -9 -9z"/>
<path d="M1340 2636 c0 -2 8 -10 18 -17 15 -13 16 -12 3 4 -13 16 -21 21 -21
13z"/>
</g>
</svg>
