<?xml version="1.0" standalone="no"?> <!DOCTYPE svg PUBLIC "-//W3C//DTD SVG 20010904//EN" "http://www.w3.org/TR/2001/REC-SVG-20010904/DTD/svg10.dtd"> <svg version="1.0" xmlns="http://www.w3.org/2000/svg" width="600.000000pt" height="600.000000pt" viewBox="0 0 600.000000 600.000000" preserveAspectRatio="xMidYMid meet"> <g transform="translate(0.000000,600.000000) scale(0.100000,-0.100000)" fill="#ffffff" stroke="none"> <path d="M4286 3155 l2 -505 -188 0 -188 0 -36 54 c-20 30 -36 56 -36 59 0 2 30 19 67 37 80 40 156 112 186 178 30 67 30 171 -2 230 -54 103 -184 195 -314 222 -38 8 -260 10 -748 7 -761 -4 -762 -4 -894 -66 -112 -52 -175 -127 -194 -232 -34 -192 83 -296 384 -338 39 -6 147 -15 240 -21 247 -16 289 -29 269 -87 -14 -42 -86 -73 -185 -82 -155 -13 -270 13 -317 74 l-20 25 -190 -2 -189 -3 13 -54 c39 -150 126 -230 304 -278 54 -15 106 -18 310 -18 276 0 343 10 466 69 104 50 163 123 182 223 26 142 -33 240 -177 294 -85 32 -174 47 -341 59 -344 24 -388 35 -375 88 7 33 35 58 83 74 50 16 1101 24 1153 9 74 -22 97 -93 45 -138 -26 -22 -34 -23 -182 -23 l-154 0 0 -138 0 -137 43 3 43 4 65 -101 c35 -55 93 -146 128 -201 l65 -100 513 0 513 1 0 659 0 660 -172 0 -173 0 1 -505z m134 476 c0 -5 15 -5 35 -1 19 4 37 4 40 0 2 -4 16 -5 30 -2 14 2 32 -1 40 -8 9 -7 18 -10 22 -6 3 3 1 6 -5 6 -7 0 -12 5 -12 10 0 7 6 8 16 2 15 -8 17 -68 19 -634 l2 -626 -21 0 c-12 0 -235 -1 -495 -2 -448 -2 -476 -1 -488 16 -7 10 -11 24 -9 31 3 7 1 12 -5 10 -6 -1 -17 9 -26 23 -13 21 -13 22 0 7 13 -15 15 -15 20 -2 4 8 3 14 -1 13 -29 -9 -97 78 -85 109 5 12 3 14 -7 8 -10 -6 -12 -4 -6 10 6 16 4 16 -11 4 -10 -7 -15 -10 -11 -5 4 5 -2 20 -13 34 -11 15 -17 34 -14 46 3 12 2 15 -1 9 -3 -7 -11 -13 -16 -13 -6 0 -9 3 -5 6 5 6 -10 28 -45 66 -10 10 -18 24 -18 31 0 9 -3 8 -9 -2 -10 -15 -47 -7 -53 12 -2 7 -2 54 0 105 l3 93 130 -2 c72 0 133 2 136 5 4 3 12 6 20 6 18 0 63 41 63 57 0 7 5 13 11 13 6 0 8 9 4 23 -4 12 -8 26 -9 31 0 5 -10 18 -22 30 -12 12 -23 28 -25 35 -3 7 -25 17 -49 21 -56 10 -1073 1 -1117 -10 -22 -6 -33 -5 -33 2 0 6 -8 4 -18 -5 -10 -10 -24 -17 -31 -17 -37 0 -76 -92 -53 -126 14 -20 57 -44 80 -44 16 0 21 -4 16 -12 -6 -10 -5 -10 8 -1 8 7 17 11 19 8 3 -2 57 -7 120 -10 62 -3 134 -8 159 -12 25 -3 50 -5 57 -4 13 2 105 -14 173 -30 25 -5 56 -10 70 -10 20 1 22 -1 10 -10 -12 -9 -11 -10 7 -6 12 3 27 -1 34 -9 6 -8 20 -14 30 -14 11 0 19 -4 19 -8 0 -4 13 -16 30 -25 16 -10 29 -21 28 -25 0 -4 6 -24 15 -44 21 -47 22 -120 1 -159 -8 -17 -13 -33 -11 -36 19 -18 -105 -143 -142 -143 -12 0 -21 -4 -21 -9 0 -13 -120 -45 -157 -42 -18 1 -33 -2 -33 -8 0 -5 -18 -8 -42 -6 -23 3 -46 1 -52 -4 -14 -12 -225 -11 -232 0 -3 5 -11 9 -17 9 -7 0 -6 -4 3 -10 20 -13 10 -13 -100 0 -144 17 -286 70 -311 117 -7 12 -16 20 -21 17 -4 -3 -8 2 -8 11 0 9 -5 13 -10 10 -6 -4 -10 -3 -9 2 3 18 -2 32 -15 46 -19 19 -25 63 -8 59 8 -1 11 2 7 8 -3 6 -11 8 -16 5 -5 -4 -9 1 -9 9 0 9 3 16 8 16 251 6 322 4 317 -9 -3 -8 0 -11 9 -8 17 7 50 -26 39 -38 -5 -4 -1 -6 7 -3 8 3 29 -3 47 -13 17 -10 55 -20 85 -23 29 -4 67 -8 83 -10 74 -10 275 46 275 76 0 5 5 6 12 2 7 -5 8 -3 3 6 -4 7 -3 15 4 19 7 5 5 19 -9 46 -11 21 -17 42 -14 46 3 5 -3 6 -12 2 -10 -4 -15 -2 -11 3 3 5 -2 10 -11 11 -9 0 -46 3 -82 7 -36 3 -123 10 -195 16 -251 19 -280 23 -260 31 23 9 24 8 -60 13 -22 1 -49 7 -60 13 -11 6 -37 16 -58 23 -33 10 -36 14 -25 28 12 14 10 14 -11 3 -19 -11 -22 -11 -15 1 14 22 13 37 -3 31 -12 -5 -12 -7 -1 -14 7 -5 8 -9 2 -9 -19 0 -57 48 -50 65 3 9 2 14 -3 11 -5 -3 -11 4 -15 17 -9 36 -7 85 5 93 7 4 8 9 0 17 -7 7 -5 15 7 24 9 8 11 12 5 8 -18 -9 -16 5 4 28 11 13 13 17 4 12 -8 -5 -1 9 15 31 16 21 32 41 37 42 4 2 5 8 2 12 -3 5 0 12 6 16 8 5 9 3 4 -6 -6 -10 -4 -12 7 -7 9 3 22 0 29 -6 7 -7 6 -2 -4 9 -17 21 -17 22 15 34 37 15 78 31 123 49 16 7 43 14 60 16 16 3 58 8 93 13 36 5 62 5 62 0 0 -5 10 -6 23 -2 30 9 1208 11 1214 2 2 -5 10 -8 16 -8 7 0 6 4 -3 10 -11 7 -5 8 20 4 80 -13 130 -27 130 -36 0 -5 8 -8 18 -5 9 2 31 -7 48 -19 17 -13 34 -20 38 -17 3 4 6 1 6 -6 0 -7 4 -9 10 -6 6 3 7 -1 4 -9 -4 -10 2 -19 17 -25 43 -17 78 -60 94 -116 9 -30 13 -64 10 -76 -5 -15 -4 -19 4 -15 14 9 14 10 -3 -44 -20 -65 -38 -100 -47 -94 -8 5 -13 -10 -10 -29 1 -5 -3 -6 -8 -3 -5 4 -12 -3 -16 -13 -3 -11 -15 -23 -26 -26 -11 -4 -16 -11 -12 -18 4 -7 -1 -6 -11 2 -13 11 -19 12 -29 2 -9 -10 -8 -11 6 -6 9 4 17 4 17 0 0 -3 -29 -19 -64 -35 -36 -16 -67 -34 -70 -39 -8 -12 29 -93 37 -84 4 3 8 -1 8 -10 3 -31 4 -35 13 -44 5 -5 6 -2 1 7 -4 8 2 5 14 -7 21 -22 28 -23 211 -23 179 0 190 1 200 20 7 13 11 180 11 504 0 266 2 486 6 490 10 9 103 7 103 -3z m-1673 -1257 c-3 -3 -12 -4 -19 -1 -8 3 -5 6 6 6 11 1 17 -2 13 -5z"/> <path d="M2318 3383 c7 -3 16 -2 19 1 4 3 -2 6 -13 5 -11 0 -14 -3 -6 -6z"/> <path d="M2100 3320 c-9 -6 -10 -10 -3 -10 6 0 15 5 18 10 8 12 4 12 -15 0z"/> <path d="M4035 3221 c-3 -5 -2 -12 3 -15 5 -3 9 1 9 9 0 17 -3 19 -12 6z"/> <path d="M3610 3182 c0 -11 27 -42 37 -42 3 0 -2 10 -13 23 -10 12 -20 24 -21 26 -2 2 -3 -1 -3 -7z"/> <path d="M3131 2826 c-9 -11 -9 -16 1 -22 7 -4 10 -4 6 1 -4 4 -3 14 3 22 6 7 9 13 6 13 -2 0 -10 -6 -16 -14z"/> <path d="M2852 2764 c-7 -8 -8 -14 -2 -14 5 0 10 -7 10 -16 0 -8 4 -13 9 -9 8 5 7 42 -1 50 -2 2 -9 -3 -16 -11z"/> <path d="M2030 2559 c0 -3 11 -15 24 -26 l24 -21 -2 23 c-1 15 -5 20 -12 14 -6 -5 -15 -4 -22 3 -7 7 -12 10 -12 7z"/> <path d="M2130 2460 c8 -5 20 -10 25 -10 6 0 3 5 -5 10 -8 5 -19 10 -25 10 -5 0 -3 -5 5 -10z"/> <path d="M1660 2780 c-9 -6 -10 -10 -3 -10 6 0 15 5 18 10 8 12 4 12 -15 0z"/> <path d="M1449 2721 c-96 -60 -105 -192 -20 -264 46 -38 97 -52 148 -38 123 33 171 176 90 268 -61 69 -143 82 -218 34z m149 -14 c6 -5 12 -6 12 -2 0 16 32 -21 52 -58 23 -46 20 -110 -8 -151 -16 -26 -31 -37 -18 -13 4 6 -4 0 -19 -15 -22 -24 -34 -28 -82 -28 -48 0 -60 4 -80 26 -14 15 -25 31 -25 36 0 5 -4 7 -9 4 -5 -3 -11 11 -15 32 -11 66 -7 98 14 117 11 10 18 21 15 25 -4 6 43 30 85 43 19 6 61 -3 78 -16z"/> <path d="M1614 2691 c4 -5 0 -11 -6 -14 -7 -3 -3 -4 9 -4 17 1 19 4 11 14 -12 15 -22 18 -14 4z"/> <path d="M1606 2648 c3 -5 10 -6 15 -3 13 9 11 12 -6 12 -8 0 -12 -4 -9 -9z"/> <path d="M1415 2639 c-4 -6 -5 -12 -2 -15 2 -3 7 2 10 11 7 17 1 20 -8 4z"/> <path d="M1540 2466 c0 -2 7 -7 16 -10 8 -3 12 -2 9 4 -6 10 -25 14 -25 6z"/> <path d="M3905 2741 c-3 -5 -2 -12 3 -15 5 -3 9 1 9 9 0 17 -3 19 -12 6z"/> </g> </svg>